<?xml version="1.0" encoding="utf-8"?>
<!-- Generator: Adobe Illustrator 24.3.0, SVG Export Plug-In . SVG Version: 6.00 Build 0)  -->
<svg version="1.1" id="Layer_1" xmlns="http://www.w3.org/2000/svg" xmlns:xlink="http://www.w3.org/1999/xlink" x="0px" y="0px"
	 viewBox="0 0 150 150" style="enable-background:new 0 0 150 150;" xml:space="preserve">
<path d="M100,0H50H0v50v50v50h50h50h50v-50V50V0H100z M147,3v7.7c-4.1,0-7.5-3.5-7.5-7.7H147z M137.2,16.6c-0.6-0.6-1.1-1.2-1.7-1.8
	c-0.1-0.1-0.1-0.1-0.2-0.2c-0.6-0.6-1.2-1.2-1.8-1.7c-0.2-0.2-0.4-0.3-0.6-0.7c2.4-0.9,4.8-1.7,7.4-2.7c-1,2.7-1.7,5.2-2.6,7.5
	c0,0.1,0,0.1,0,0.1l0.1,0.1c1.7-1.8,3.6-3.5,5.6-5.6l0.2,8.3c1-2.4,2.2-4.8,3.4-7.5c0,0.1,0,0.1,0,0.1v20.4c-0.3-0.8-0.7-1.6-1-2.4
	c-0.1-0.3-0.2-0.5-0.3-0.7c-0.3-0.6-0.5-1.1-0.8-1.7c-0.1-0.3-0.3-0.6-0.4-0.9c-0.3-0.5-0.5-0.9-0.8-1.4c-0.1-0.3-0.3-0.6-0.5-0.9
	c-0.3-0.4-0.5-0.9-0.8-1.3c-0.2-0.3-0.4-0.6-0.6-0.8c-0.3-0.5-0.6-0.9-0.9-1.3c-0.2-0.3-0.4-0.6-0.6-0.9c-0.3-0.4-0.6-0.8-0.9-1.2
	c-0.2-0.3-0.4-0.5-0.6-0.8c-0.3-0.4-0.7-0.8-1-1.2l-0.1-0.1c0-0.1,0-0.1,0-0.1C137.6,17,137.4,16.8,137.2,16.6z M137.4,3
	c-2.7,1.2-5,2.4-7.4,3.4l8.4,0.1c-1.8,1.7-4,4-5.7,5.7c-0.4-0.3-0.8-0.7-1.2-1c-0.3-0.2-0.5-0.4-0.8-0.6c-0.4-0.3-0.8-0.6-1.2-0.9
	c-0.3-0.2-0.6-0.4-0.9-0.6c-0.5-0.3-0.9-0.6-1.3-0.9c-0.3-0.2-0.6-0.4-0.9-0.6c-0.4-0.3-0.9-0.5-1.3-0.8c-0.3-0.2-0.6-0.3-0.9-0.5
	c-0.4-0.3-0.9-0.6-1.4-0.8c-0.3-0.1-0.6-0.3-0.9-0.4c-0.6-0.3-1.1-0.5-1.7-0.8c-0.3-0.1-0.5-0.2-0.7-0.3c-0.8-0.4-1.6-0.7-2.4-1
	H137.4z M32.9,3c-0.8,0.3-1.6,0.6-2.4,1c-0.2,0.1-0.4,0.2-0.7,0.3c-0.6,0.3-1.1,0.5-1.7,0.8c-0.3,0.1-0.6,0.3-0.9,0.4
	c-0.5,0.2-1,0.5-1.4,0.8c-0.3,0.2-0.6,0.3-0.9,0.5c-0.4,0.3-0.9,0.5-1.3,0.8C23.3,7.8,23,8,22.7,8.2c-0.4,0.3-0.8,0.6-1.3,0.9
	c-0.3,0.2-0.6,0.4-0.9,0.6c-0.4,0.3-0.8,0.6-1.2,0.9c-0.3,0.2-0.5,0.4-0.8,0.6c-0.4,0.3-0.8,0.7-1.2,1c-1.7-1.7-3.9-4-5.7-5.7
	L20,6.4c-2.4-1-4.7-2.2-7.4-3.4H32.9z M3,3h7.5c0,4.2-3.4,7.7-7.5,7.7V3z M3,12.5C3,12.5,3,12.5,3,12.5c1.2,2.6,2.4,5,3.4,7.4
	l0.2-8.3c2,2.1,3.9,3.8,5.6,5.6l0.1-0.1c0,0,0,0,0-0.1c-0.9-2.3-1.6-4.8-2.6-7.5c2.6,1,5,1.8,7.4,2.7c-0.2,0.4-0.4,0.5-0.6,0.7
	c-0.6,0.5-1.2,1.1-1.8,1.7c-0.1,0.1-0.1,0.1-0.2,0.2c-0.6,0.6-1.1,1.2-1.7,1.8c-0.2,0.2-0.4,0.4-0.5,0.6c0,0,0,0,0,0.1l-0.1,0.1
	c-0.3,0.4-0.7,0.8-1,1.2c-0.2,0.3-0.4,0.5-0.6,0.8c-0.3,0.4-0.6,0.8-0.9,1.2c-0.2,0.3-0.4,0.6-0.6,0.9c-0.3,0.4-0.6,0.8-0.9,1.3
	C8,23,7.8,23.3,7.6,23.6c-0.3,0.4-0.5,0.9-0.8,1.3c-0.2,0.3-0.4,0.6-0.5,0.9c-0.3,0.5-0.5,0.9-0.8,1.4c-0.1,0.3-0.3,0.6-0.4,0.9
	c-0.3,0.6-0.5,1.1-0.8,1.7C4.2,30,4.1,30.2,4,30.5c-0.3,0.8-0.7,1.6-1,2.4V12.5z M12.8,133.4c0.6,0.6,1.1,1.2,1.7,1.8
	c0.1,0.1,0.1,0.1,0.2,0.2c0.6,0.6,1.2,1.2,1.8,1.7c0.2,0.2,0.4,0.3,0.6,0.7c-2.4,0.9-4.8,1.7-7.4,2.7c1-2.7,1.7-5.2,2.6-7.5
	c0-0.1,0-0.1,0-0.1l-0.1-0.1c-1.7,1.8-3.6,3.5-5.6,5.6l-0.2-8.3c-1,2.4-2.2,4.8-3.4,7.5c0-0.1,0-0.1,0-0.1v-20.4
	c0.3,0.8,0.7,1.6,1,2.4c0.1,0.3,0.2,0.5,0.3,0.7c0.3,0.6,0.5,1.1,0.8,1.7c0.1,0.3,0.3,0.6,0.4,0.9c0.3,0.5,0.5,0.9,0.8,1.4
	c0.1,0.3,0.3,0.6,0.5,0.9c0.3,0.4,0.5,0.9,0.8,1.3c0.2,0.3,0.4,0.6,0.6,0.8c0.3,0.5,0.6,0.9,0.9,1.3c0.2,0.3,0.4,0.6,0.6,0.9
	c0.3,0.4,0.6,0.8,0.9,1.2c0.2,0.3,0.4,0.5,0.6,0.8c0.3,0.4,0.7,0.8,1,1.2l0.1,0.1c0,0.1,0,0.1,0,0.1C12.4,133,12.6,133.2,12.8,133.4
	z M3,147v-7.7c4.1,0,7.5,3.5,7.5,7.7H3z M12.6,147c2.7-1.2,5-2.4,7.4-3.4l-8.4-0.1c1.8-1.7,4-4,5.7-5.7c0.4,0.3,0.8,0.7,1.2,1
	c0.3,0.2,0.5,0.4,0.8,0.6c0.4,0.3,0.8,0.6,1.2,0.9c0.3,0.2,0.6,0.4,0.9,0.6c0.5,0.3,0.9,0.6,1.3,0.9c0.3,0.2,0.6,0.4,0.9,0.6
	c0.4,0.3,0.9,0.5,1.3,0.8c0.3,0.2,0.6,0.3,0.9,0.5c0.4,0.3,0.9,0.6,1.4,0.8c0.3,0.1,0.6,0.3,0.9,0.4c0.6,0.3,1.1,0.5,1.7,0.8
	c0.3,0.1,0.5,0.2,0.7,0.3c0.8,0.4,1.6,0.7,2.4,1H12.6z M117.1,147c0.8-0.3,1.6-0.6,2.4-1c0.2-0.1,0.4-0.2,0.7-0.3
	c0.6-0.3,1.1-0.5,1.7-0.8c0.3-0.1,0.6-0.3,0.9-0.4c0.5-0.2,1-0.5,1.4-0.8c0.3-0.2,0.6-0.3,0.9-0.5c0.4-0.3,0.9-0.5,1.3-0.8
	c0.3-0.2,0.6-0.4,0.9-0.6c0.4-0.3,0.8-0.6,1.3-0.9c0.3-0.2,0.6-0.4,0.9-0.6c0.4-0.3,0.8-0.6,1.2-0.9c0.3-0.2,0.5-0.4,0.8-0.6
	c0.4-0.3,0.8-0.7,1.2-1c1.7,1.7,3.9,4,5.7,5.7l-8.4,0.1c2.4,1,4.7,2.2,7.4,3.4H117.1z M147,147h-7.5c0-4.2,3.4-7.7,7.5-7.7V147z
	 M147,137.5C147,137.5,147,137.5,147,137.5c-1.2-2.6-2.4-5-3.4-7.4l-0.2,8.3c-2-2.1-3.9-3.8-5.6-5.6l-0.1,0.1c0,0,0,0,0,0.1
	c0.9,2.3,1.6,4.8,2.6,7.5c-2.6-1-5-1.8-7.4-2.7c0.2-0.4,0.4-0.5,0.6-0.7c0.6-0.5,1.2-1.1,1.8-1.7c0.1-0.1,0.1-0.1,0.2-0.2
	c0.6-0.6,1.1-1.2,1.7-1.8c0.2-0.2,0.4-0.4,0.5-0.6c0,0,0,0,0-0.1l0.1-0.1c0.3-0.4,0.7-0.8,1-1.2c0.2-0.3,0.4-0.5,0.6-0.8
	c0.3-0.4,0.6-0.8,0.9-1.2c0.2-0.3,0.4-0.6,0.6-0.9c0.3-0.4,0.6-0.8,0.9-1.3c0.2-0.2,0.4-0.5,0.6-0.8c0.3-0.4,0.5-0.9,0.8-1.3
	c0.2-0.3,0.4-0.6,0.5-0.9c0.3-0.5,0.5-0.9,0.8-1.4c0.1-0.3,0.3-0.6,0.4-0.9c0.3-0.6,0.5-1.1,0.8-1.7c0.1-0.2,0.2-0.4,0.3-0.7
	c0.3-0.8,0.7-1.6,1-2.4V137.5z M147,100c0,25.9-21.1,47-47,47H50c-25.9,0-47-21.1-47-47V50C3,24.1,24.1,3,50,3h50
	c25.9,0,47,21.1,47,47V100z"/>
</svg>
