<?xml version="1.0" encoding="utf-8"?>
<!-- Generator: Adobe Illustrator 24.3.0, SVG Export Plug-In . SVG Version: 6.00 Build 0)  -->
<svg version="1.1" id="Layer_1" xmlns="http://www.w3.org/2000/svg" xmlns:xlink="http://www.w3.org/1999/xlink" x="0px" y="0px"
	 viewBox="0 0 38 36" style="enable-background:new 0 0 38 36;" xml:space="preserve">
<path d="M35,3v3.3c-1.5-0.7-2.6-1.9-3.3-3.3H35z M35,33h-3.3c0.7-1.5,1.9-2.6,3.3-3.3V33z M0,36h31c0-0.7,0.1-1.4,0.3-2H36v-4.7
	c0.6-0.2,1.3-0.3,2-0.3V7c-0.7,0-1.4-0.1-2-0.3V2h-4.7C31.1,1.4,31,0.7,31,0H0v2h29.2C30,5.4,32.6,8,36,8.8v18.4
	c-3.4,0.8-6,3.4-6.8,6.8H0V36z"/>
</svg>
