<svg xmlns="http://www.w3.org/2000/svg" viewBox="0 0 100 100"><defs><style>.cls-1{fill:#999;}.cls-2{fill:#333;}.cls-3{fill:#1e3c60;}</style></defs><g id="Layer_2" data-name="Layer 2"><g id="retro-crit"><polygon class="cls-1" points="75.53 17.18 54 22 63.8 14.34 34 7 100 0 94 64 84.81 34.23 76 44 80.56 27.08 75.53 17.18"/><path class="cls-1" d="M53.15,33"/><path class="cls-2" d="M61.4,10.19l11.08.47-4.23,4.88L81.9,12.78,53,33.17h.14A13.9,13.9,0,0,1,67,47L85.63,20.14,83,29.67l4.29-5,2.42,14.56L100,0Z"/><path class="cls-3" d="M44.88,69.1A31.24,31.24,0,0,1,37,63.79a31.87,31.87,0,0,1-6.09-8.65A23.9,23.9,0,0,1,25.79,63a27.21,27.21,0,0,1-8.67,6.08A34.5,34.5,0,0,1,25,74.23a30.49,30.49,0,0,1,6.09,8.66A32.68,32.68,0,0,1,36.21,75,31.07,31.07,0,0,1,44.88,69.1Z"/><path class="cls-3" d="M33.49,85.86A16.75,16.75,0,0,0,47.88,71.49,23.73,23.73,0,0,0,33.49,85.86Z"/><path class="cls-3" d="M14.12,71.49A17.18,17.18,0,0,0,28.73,85.86,23.78,23.78,0,0,0,14.12,71.49Z"/><path class="cls-3" d="M28.51,52.19A17.11,17.11,0,0,0,14.12,66.72,23.42,23.42,0,0,0,28.51,52.19Z"/><path class="cls-3" d="M33.49,52.19A23.46,23.46,0,0,0,47.88,66.54,17.33,17.33,0,0,0,33.49,52.19Z"/><path class="cls-3" d="M53.15,38H8.85A8.85,8.85,0,0,0,0,46.85v44.3A8.85,8.85,0,0,0,8.85,100h44.3A8.85,8.85,0,0,0,62,91.15V46.85A8.85,8.85,0,0,0,53.15,38ZM51.4,70.28A20.51,20.51,0,0,1,32.5,89.4a55,55,0,0,0-1.18,8.66,57.89,57.89,0,0,0-1.6-8.66,20.12,20.12,0,0,1-18.9-18.9A54.68,54.68,0,0,0,2.1,69.07H1.94a68,68,0,0,0,8.88-1.13A20.21,20.21,0,0,1,29.5,48.78a48.62,48.62,0,0,0,1.33-8.65v-.19a47.27,47.27,0,0,0,1.45,8.84A20.42,20.42,0,0,1,51.4,67.53a29.71,29.71,0,0,0,8.66,1.54A39,39,0,0,0,51.4,70.28Z"/></g></g></svg>