<svg xmlns="http://www.w3.org/2000/svg" viewBox="0 0 100 100"><defs><style>.cls-1{fill:#bbb;}.cls-2{fill:#333;}.cls-3{fill:#ab3d38;}</style></defs><g id="Layer_2" data-name="Layer 2"><g id="retro-dis"><path class="cls-1" d="M52.06,14.06,28.91.51a3.83,3.83,0,0,0-3.82,0L1.94,14.06A4,4,0,0,0,0,17.5v27a4,4,0,0,0,1.94,3.44L25.09,61.49a3.83,3.83,0,0,0,3.82,0L52.06,47.94A4,4,0,0,0,54,44.5v-27A4,4,0,0,0,52.06,14.06ZM27,10.64l8.74,11.64H18.26Zm0,30.44-8.23-13H35.23ZM13.64,30.82l7.63,12-10-2.35Zm26.72,0,2.42,9.7L32.73,42.87Zm2-9.36L33.89,10.15l12.77,7.48Zm-30.74,0L7.34,17.63l12.77-7.48ZM8.71,26.63,5.79,38.39V24ZM24.11,49.5v4.68L10.82,46.4Zm5.78,0,13.29-3.1L29.89,54.18ZM48.21,38.39,45.29,26.63,48.21,24Z"/><path class="cls-2" d="M98.06,52.06,74.91,38.51a3.83,3.83,0,0,0-3.82,0L47.94,52.06A4,4,0,0,0,46,55.5v27a4,4,0,0,0,1.94,3.44L71.09,99.49a3.83,3.83,0,0,0,3.82,0L98.06,85.94A4,4,0,0,0,100,82.5v-27A4,4,0,0,0,98.06,52.06ZM73,48.64l8.74,11.64H64.26Zm0,30.44-8.23-13H81.23ZM59.64,68.82l7.63,12.05-10-2.35Zm26.72,0,2.42,9.7-10,2.35Zm2-9.36L79.89,48.15l12.77,7.48Zm-30.74,0-4.29-3.83,12.77-7.48Zm-2.92,5.17L51.79,76.39V62ZM70.11,87.5v4.68L56.82,84.4Zm5.78,0,13.29-3.1L75.89,92.18ZM94.21,76.39,91.29,64.63,94.21,62Z"/><path class="cls-3" d="M40.82,81.41A2.33,2.33,0,0,0,38.67,80h-7V66.29A2.31,2.31,0,0,0,29.33,64H24.67a2.31,2.31,0,0,0-2.34,2.29V80h-7a2.33,2.33,0,0,0-2.15,1.41,2.26,2.26,0,0,0,.5,2.49L25.35,95.33a2.37,2.37,0,0,0,3.3,0L40.32,83.9A2.26,2.26,0,0,0,40.82,81.41Z"/></g></g></svg>