<?xml version="1.0" encoding="utf-8"?>
<!-- Generator: Adobe Illustrator 24.3.0, SVG Export Plug-In . SVG Version: 6.00 Build 0)  -->
<svg version="1.1" id="Layer_1" xmlns="http://www.w3.org/2000/svg" xmlns:xlink="http://www.w3.org/1999/xlink" x="0px" y="0px"
	 viewBox="0 0 58 30" style="enable-background:new 0 0 58 30;" xml:space="preserve">
<path fill="currentColor" d="M58,7c-0.7,0-1.4-0.1-2-0.3V2h-4.7C51.1,1.4,51,0.7,51,0H7c0,0.7-0.1,1.4-0.3,2H2v4.7C1.4,6.9,0.7,7,0,7v16
	c0.7,0,1.4,0.1,2,0.3V28h4.7C6.9,28.6,7,29.3,7,30h44c0-0.7,0.1-1.4,0.3-2H56v-4.7c0.6-0.2,1.3-0.3,2-0.3V7z M55,3v3.3
	c-1.5-0.7-2.6-1.9-3.3-3.3H55z M3,3h3.3C5.6,4.5,4.5,5.6,3,6.3V3z M3,27v-3.3c1.5,0.7,2.6,1.9,3.3,3.3H3z M55,27h-3.3
	c0.7-1.5,1.9-2.6,3.3-3.3V27z M56,21.2c-3.4,0.8-6,3.4-6.8,6.8H8.8C8,24.6,5.4,22,2,21.2V8.8C5.4,8,8,5.4,8.8,2h40.4
	C50,5.4,52.6,8,56,8.8V21.2z"/>
</svg>
