<?xml version="1.0" encoding="utf-8"?>
<!-- Generator: Adobe Illustrator 24.3.0, SVG Export Plug-In . SVG Version: 6.00 Build 0)  -->
<svg version="1.1" id="Layer_1" xmlns="http://www.w3.org/2000/svg" xmlns:xlink="http://www.w3.org/1999/xlink" x="0px" y="0px"
	 viewBox="0 0 42 42" style="enable-background:new 0 0 42 42;" xml:space="preserve">
<path d="M42,7c-0.7,0-1.4-0.1-2-0.3V2h-4.7C35.1,1.4,35,0.7,35,0H7c0,0.7-0.1,1.4-0.3,2H2v4.7C1.4,6.9,0.7,7,0,7v28
	c0.7,0,1.4,0.1,2,0.3V40h4.7C6.9,40.6,7,41.3,7,42h28c0-0.7,0.1-1.4,0.3-2H40v-4.7c0.6-0.2,1.3-0.3,2-0.3V7z M39,3v3.3
	c-1.5-0.7-2.6-1.9-3.3-3.3H39z M3,3h3.3C5.6,4.5,4.5,5.6,3,6.3V3z M3,39v-3.3c1.5,0.7,2.6,1.9,3.3,3.3H3z M39,39h-3.3
	c0.7-1.5,1.9-2.6,3.3-3.3V39z M40,33.2c-3.4,0.8-6,3.4-6.8,6.8H8.8C8,36.6,5.4,34,2,33.2V8.8C5.4,8,8,5.4,8.8,2h24.4
	C34,5.4,36.6,8,40,8.8V33.2z"/>
</svg>
