<?xml version="1.0" encoding="utf-8"?>
<!-- Generator: Adobe Illustrator 24.3.0, SVG Export Plug-In . SVG Version: 6.00 Build 0)  -->
<svg version="1.1" xmlns="http://www.w3.org/2000/svg" xmlns:xlink="http://www.w3.org/1999/xlink" x="0px" y="0px"
	 viewBox="0 0 58 50" style="enable-background:new 0 0 58 50;" xml:space="preserve">
<style type="text/css">
	.st0{display:none;}
	.st1{display:inline;}
</style>
<g id="Layer_1_copy" class="st0">
	<path class="st1" d="M0,0h58v50H7c0-0.7-0.1-1.4-0.3-2H2v-4.7C1.4,43.1,0.7,43,0,43V0z M3,47h3.3c-0.7-1.5-1.9-2.6-3.3-3.3V47z
		 M2,41.2C5.4,42,8,44.6,8.8,48H56V2H2V41.2z"/>
</g>
<g id="Layer_1">
	<path d="M58,0H0v50h51c0-0.7,0.1-1.4,0.3-2H56v-4.7c0.6-0.2,1.3-0.3,2-0.3V0z M55,47h-3.3c0.7-1.5,1.9-2.6,3.3-3.3V47z M56,41.2
		c-3.4,0.8-6,3.4-6.8,6.8H2V2h54V41.2z"/>
</g>
</svg>
