<?xml version="1.0" encoding="utf-8"?>
<!-- Generator: Adobe Illustrator 24.3.0, SVG Export Plug-In . SVG Version: 6.00 Build 0)  -->
<svg version="1.1" id="Layer_1" xmlns="http://www.w3.org/2000/svg" xmlns:xlink="http://www.w3.org/1999/xlink" x="0px" y="0px"
	 viewBox="0 0 32 38" style="enable-background:new 0 0 32 38;" xml:space="preserve">
<path d="M30,6.7V2h-4.7C25.1,1.4,25,0.7,25,0h-9H7c0,0.7-0.1,1.4-0.3,2H2v4.7C1.4,6.9,0.7,7,0,7v22c1.8,1.6,4.1,3.3,7,5
	c3.3,1.9,6.4,3.2,9,4c2.6-0.8,5.7-2.1,9-4c2.9-1.7,5.2-3.4,7-5V7C31.3,7,30.6,6.9,30,6.7z M29,3v3.3c-1.5-0.7-2.6-1.9-3.3-3.3H29z
	 M3,3h3.3C5.6,4.5,4.5,5.6,3,6.3V3z M30,28.1c-1.9,1.6-3.9,3-6,4.2c-2.5,1.5-5.2,2.7-8,3.6c-2.8-0.9-5.5-2.2-8-3.6
	c-2.1-1.2-4.1-2.6-6-4.2V8.8C5.4,8,8,5.4,8.8,2H16h7.2C24,5.4,26.6,8,30,8.8V28.1z"/>
</svg>
