<?xml version="1.0" encoding="utf-8"?>
<!-- Generator: Adobe Illustrator 24.3.0, SVG Export Plug-In . SVG Version: 6.00 Build 0)  -->
<svg version="1.1" id="Layer_1" xmlns="http://www.w3.org/2000/svg" xmlns:xlink="http://www.w3.org/1999/xlink" x="0px" y="0px"
	 viewBox="0 0 100 100" style="enable-background:new 0 0 100 100;" xml:space="preserve">
<path d="M100,7c-0.7,0-1.4-0.1-2-0.3V2h-4.7C93.1,1.4,93,0.7,93,0H7c0,0.7-0.1,1.4-0.3,2H2v4.7C1.4,6.9,0.7,7,0,7v86
	c0.7,0,1.4,0.1,2,0.3V98h4.7c0.2,0.6,0.3,1.3,0.3,2h86c0-0.7,0.1-1.4,0.3-2H98v-4.7c0.6-0.2,1.3-0.3,2-0.3V7z M97,3v3.3
	c-1.5-0.7-2.6-1.9-3.3-3.3H97z M3,3h3.3C5.6,4.5,4.5,5.6,3,6.3V3z M3,97v-3.3c1.5,0.7,2.6,1.9,3.3,3.3H3z M97,97h-3.3
	c0.7-1.5,1.9-2.6,3.3-3.3V97z M98,91.2c-3.4,0.8-6,3.4-6.8,6.8H8.8C8,94.6,5.4,92,2,91.2V8.8C5.4,8,8,5.4,8.8,2h82.4
	C92,5.4,94.6,8,98,8.8V91.2z"/>
</svg>
