<?xml version="1.0" encoding="utf-8"?>
<!-- Generator: Adobe Illustrator 24.3.0, SVG Export Plug-In . SVG Version: 6.00 Build 0)  -->
<svg version="1.1" id="Layer_2" xmlns="http://www.w3.org/2000/svg" xmlns:xlink="http://www.w3.org/1999/xlink" x="0px" y="0px"
	 viewBox="0 0 100 100" style="enable-background:new 0 0 100 100;" xml:space="preserve">
<path d="M84.9,52.3c4.8-1.5,9.8-2.3,15.1-2.3c-5.3,0-10.3-0.8-15.1-2.3c-1.1-17.5-15.1-31.4-32.6-32.6C50.8,10.3,50,5.3,50,0
	c0,5.3-0.8,10.3-2.3,15.1c-17.5,1.1-31.4,15.1-32.6,32.6C10.3,49.2,5.3,50,0,50c5.3,0,10.3,0.8,15.1,2.3
	c1.1,17.5,15.1,31.4,32.6,32.6c1.5,4.8,2.3,9.8,2.3,15.1c0-5.3,0.8-10.3,2.3-15.1C69.8,83.8,83.8,69.8,84.9,52.3z M78.6,45.2
	c-10.4-4.9-18.8-13.4-23.8-23.8C67,23.4,76.6,33,78.6,45.2z M25.2,50C35.9,44.6,44.6,35.9,50,25.2C55.4,35.9,64.1,44.6,74.8,50
	C64.1,55.4,55.4,64.1,50,74.8C44.6,64.1,35.9,55.4,25.2,50z M45.2,21.4c-4.9,10.4-13.4,18.8-23.8,23.8C23.4,33,33,23.4,45.2,21.4z
	 M21.4,54.8c10.4,4.9,18.8,13.4,23.8,23.8C33,76.6,23.4,67,21.4,54.8z M54.8,78.6c4.9-10.4,13.4-18.8,23.8-23.8
	C76.6,67,67,76.6,54.8,78.6z"/>
</svg>
